<?xml version="1.0" standalone="no"?><!DOCTYPE svg PUBLIC "-//W3C//DTD SVG 1.1//EN" "http://www.w3.org/Graphics/SVG/1.1/DTD/svg11.dtd"><svg t="1671367191089" class="icon" viewBox="0 0 1024 1024" version="1.1" xmlns="http://www.w3.org/2000/svg" p-id="4774" xmlns:xlink="http://www.w3.org/1999/xlink" width="200" height="200"><path d="M977.454545 1024h-186.181818a46.545455 46.545455 0 0 1-46.545454-46.545455v-186.181818a46.545455 46.545455 0 0 1 46.545454-46.545454h46.545455v-149.969455a36.258909 36.258909 0 0 0-36.305455-36.212363H558.545455v186.181818h46.545454a46.545455 46.545455 0 0 1 46.545455 46.545454v186.181818a46.545455 46.545455 0 0 1-46.545455 46.545455H418.909091a46.545455 46.545455 0 0 1-46.545455-46.545455v-186.181818a46.545455 46.545455 0 0 1 46.545455-46.545454h46.545454v-186.181818H222.487273a36.258909 36.258909 0 0 0-36.305455 36.212363V744.727273h46.545455a46.545455 46.545455 0 0 1 46.545454 46.545454v186.181818a46.545455 46.545455 0 0 1-46.545454 46.545455H46.545455a46.545455 46.545455 0 0 1-46.545455-46.545455v-186.181818a46.545455 46.545455 0 0 1 46.545455-46.545454h46.545454v-186.181818a93.090909 93.090909 0 0 1 93.090909-93.09091h279.272727V372.363636H418.909091a93.090909 93.090909 0 0 1-93.090909-93.090909V93.090909a93.090909 93.090909 0 0 1 93.090909-93.090909h186.181818a93.090909 93.090909 0 0 1 93.090909 93.090909v186.181818a93.090909 93.090909 0 0 1-93.090909 93.090909h-46.545454v93.090909h279.272727a93.090909 93.090909 0 0 1 93.090909 93.09091v186.181818h46.545454a46.545455 46.545455 0 0 1 46.545455 46.545454v186.181818a46.545455 46.545455 0 0 1-46.545455 46.545455z m-512-93.090909h93.09091v-93.090909h-93.09091v93.090909z m-372.363636-93.090909v93.090909h93.090909v-93.090909H93.090909zM605.090909 279.272727V93.090909H418.909091v186.181818h186.181818z m325.818182 558.545455h-93.090909v93.090909h93.090909v-93.090909z" fill="#e6e6e6" p-id="4775"></path></svg>