<?xml version="1.0" standalone="no"?><!DOCTYPE svg PUBLIC "-//W3C//DTD SVG 1.1//EN" "http://www.w3.org/Graphics/SVG/1.1/DTD/svg11.dtd"><svg t="1680252141731" class="icon" viewBox="0 0 1024 1024" version="1.1" xmlns="http://www.w3.org/2000/svg" p-id="7840" xmlns:xlink="http://www.w3.org/1999/xlink" width="300" height="300"><path d="M908.777425 0H221.776367C149.897707 0 91.383422 58.514286 91.383422 130.392945V902.998236c0 66.821869 54.179894 121.001764 121.001763 121.001764h696.753439c13.003175 0 23.839153-10.47478 23.839154-23.839153V23.839153c-0.361199-13.364374-10.835979-23.839153-24.200353-23.839153z m-141.951323 47.317108v390.095238l-55.624691-41.537919c-4.334392-3.250794-9.029982-4.695591-14.086773-4.695591s-10.11358 1.444797-14.086772 4.695591l-55.624691 41.537919v-390.095238h139.422927z m-545.049735 0h357.948501v437.412345c0 9.029982 5.05679 17.337566 13.003174 21.310759 7.946384 3.973192 17.698765 3.250794 24.922752-2.167196l79.463844-59.236684 79.463845 59.236684c4.334392 3.250794 9.029982 4.695591 14.086773 4.695591 3.611993 0 7.223986-0.722399 10.474779-2.528395 7.946384-3.973192 13.003175-12.280776 13.003175-21.310759V47.317108h71.156261v734.679365H212.023986c-27.451146 0-53.096296 9.391182-73.323457 24.922751V130.392945c0-45.87231 37.203527-83.075838 83.075838-83.075837z m-9.752381 929.004585c-40.454321 0-73.323457-32.869136-73.323457-73.323457 0-40.454321 32.869136-73.323457 73.323457-73.323456h673.275485v50.206701H223.221164c-13.003175 0-23.839153 10.47478-23.839153 23.839154 0 13.003175 10.47478 23.839153 23.839153 23.839153h662.078307v49.484304H212.023986z m0 0" p-id="7841"></path></svg>